<mxfile host="app.diagrams.net" modified="2020-10-29T04:02:51.983Z" agent="5.0 (Macintosh; Intel Mac OS X 10_15_7) AppleWebKit/537.36 (KHTML, like Gecko) Chrome/86.0.4240.111 Safari/537.36" etag="-pdGqeowoaJ-89iPTsQY" version="13.8.6" type="github">
  <diagram id="R2lEEEUBdFMjLlhIrx00" name="Page-1">
    <mxGraphModel dx="901" dy="591" grid="1" gridSize="10" guides="1" tooltips="1" connect="1" arrows="1" fold="1" page="1" pageScale="1" pageWidth="850" pageHeight="1100" math="0" shadow="0" extFonts="Permanent Marker^https://fonts.googleapis.com/css?family=Permanent+Marker">
      <root>
        <mxCell id="0" />
        <mxCell id="1" parent="0" />
        <mxCell id="C-vyLk0tnHw3VtMMgP7b-23" value="users" style="shape=table;startSize=30;container=1;collapsible=1;childLayout=tableLayout;fixedRows=1;rowLines=0;fontStyle=1;align=center;resizeLast=1;" parent="1" vertex="1">
          <mxGeometry x="110" y="79" width="250" height="160" as="geometry" />
        </mxCell>
        <mxCell id="C-vyLk0tnHw3VtMMgP7b-24" value="" style="shape=partialRectangle;collapsible=0;dropTarget=0;pointerEvents=0;fillColor=none;points=[[0,0.5],[1,0.5]];portConstraint=eastwest;top=0;left=0;right=0;bottom=1;" parent="C-vyLk0tnHw3VtMMgP7b-23" vertex="1">
          <mxGeometry y="30" width="250" height="30" as="geometry" />
        </mxCell>
        <mxCell id="C-vyLk0tnHw3VtMMgP7b-25" value="PK" style="shape=partialRectangle;overflow=hidden;connectable=0;fillColor=none;top=0;left=0;bottom=0;right=0;fontStyle=1;" parent="C-vyLk0tnHw3VtMMgP7b-24" vertex="1">
          <mxGeometry width="30" height="30" as="geometry" />
        </mxCell>
        <mxCell id="C-vyLk0tnHw3VtMMgP7b-26" value="id int NOT NULL" style="shape=partialRectangle;overflow=hidden;connectable=0;fillColor=none;top=0;left=0;bottom=0;right=0;align=left;spacingLeft=6;fontStyle=5;" parent="C-vyLk0tnHw3VtMMgP7b-24" vertex="1">
          <mxGeometry x="30" width="220" height="30" as="geometry" />
        </mxCell>
        <mxCell id="C-vyLk0tnHw3VtMMgP7b-27" value="" style="shape=partialRectangle;collapsible=0;dropTarget=0;pointerEvents=0;fillColor=none;points=[[0,0.5],[1,0.5]];portConstraint=eastwest;top=0;left=0;right=0;bottom=0;" parent="C-vyLk0tnHw3VtMMgP7b-23" vertex="1">
          <mxGeometry y="60" width="250" height="30" as="geometry" />
        </mxCell>
        <mxCell id="C-vyLk0tnHw3VtMMgP7b-28" value="" style="shape=partialRectangle;overflow=hidden;connectable=0;fillColor=none;top=0;left=0;bottom=0;right=0;" parent="C-vyLk0tnHw3VtMMgP7b-27" vertex="1">
          <mxGeometry width="30" height="30" as="geometry" />
        </mxCell>
        <mxCell id="C-vyLk0tnHw3VtMMgP7b-29" value="name varchar(255) NOT NULL" style="shape=partialRectangle;overflow=hidden;connectable=0;fillColor=none;top=0;left=0;bottom=0;right=0;align=left;spacingLeft=6;" parent="C-vyLk0tnHw3VtMMgP7b-27" vertex="1">
          <mxGeometry x="30" width="220" height="30" as="geometry" />
        </mxCell>
        <mxCell id="2JdC5m-IOMZ6hg112ZX0-43" value="" style="shape=partialRectangle;collapsible=0;dropTarget=0;pointerEvents=0;fillColor=none;top=0;left=0;bottom=0;right=0;points=[[0,0.5],[1,0.5]];portConstraint=eastwest;" vertex="1" parent="C-vyLk0tnHw3VtMMgP7b-23">
          <mxGeometry y="90" width="250" height="30" as="geometry" />
        </mxCell>
        <mxCell id="2JdC5m-IOMZ6hg112ZX0-44" value="" style="shape=partialRectangle;connectable=0;fillColor=none;top=0;left=0;bottom=0;right=0;editable=1;overflow=hidden;" vertex="1" parent="2JdC5m-IOMZ6hg112ZX0-43">
          <mxGeometry width="30" height="30" as="geometry" />
        </mxCell>
        <mxCell id="2JdC5m-IOMZ6hg112ZX0-45" value="email varchar(255) NULL" style="shape=partialRectangle;connectable=0;fillColor=none;top=0;left=0;bottom=0;right=0;align=left;spacingLeft=6;overflow=hidden;" vertex="1" parent="2JdC5m-IOMZ6hg112ZX0-43">
          <mxGeometry x="30" width="220" height="30" as="geometry" />
        </mxCell>
        <mxCell id="2JdC5m-IOMZ6hg112ZX0-51" value="" style="shape=partialRectangle;collapsible=0;dropTarget=0;pointerEvents=0;fillColor=none;top=0;left=0;bottom=0;right=0;points=[[0,0.5],[1,0.5]];portConstraint=eastwest;" vertex="1" parent="C-vyLk0tnHw3VtMMgP7b-23">
          <mxGeometry y="120" width="250" height="30" as="geometry" />
        </mxCell>
        <mxCell id="2JdC5m-IOMZ6hg112ZX0-52" value="" style="shape=partialRectangle;connectable=0;fillColor=none;top=0;left=0;bottom=0;right=0;editable=1;overflow=hidden;" vertex="1" parent="2JdC5m-IOMZ6hg112ZX0-51">
          <mxGeometry width="30" height="30" as="geometry" />
        </mxCell>
        <mxCell id="2JdC5m-IOMZ6hg112ZX0-53" value="active boolean NOT NULL default true" style="shape=partialRectangle;connectable=0;fillColor=none;top=0;left=0;bottom=0;right=0;align=left;spacingLeft=6;overflow=hidden;" vertex="1" parent="2JdC5m-IOMZ6hg112ZX0-51">
          <mxGeometry x="30" width="220" height="30" as="geometry" />
        </mxCell>
        <mxCell id="2JdC5m-IOMZ6hg112ZX0-6" value="timelogs" style="shape=table;startSize=30;container=1;collapsible=1;childLayout=tableLayout;fixedRows=1;rowLines=0;fontStyle=1;align=center;resizeLast=1;" vertex="1" parent="1">
          <mxGeometry x="480" y="79" width="280" height="230" as="geometry" />
        </mxCell>
        <mxCell id="2JdC5m-IOMZ6hg112ZX0-7" value="" style="shape=partialRectangle;collapsible=0;dropTarget=0;pointerEvents=0;fillColor=none;top=0;left=0;bottom=1;right=0;points=[[0,0.5],[1,0.5]];portConstraint=eastwest;" vertex="1" parent="2JdC5m-IOMZ6hg112ZX0-6">
          <mxGeometry y="30" width="280" height="30" as="geometry" />
        </mxCell>
        <mxCell id="2JdC5m-IOMZ6hg112ZX0-8" value="PK" style="shape=partialRectangle;connectable=0;fillColor=none;top=0;left=0;bottom=0;right=0;fontStyle=1;overflow=hidden;" vertex="1" parent="2JdC5m-IOMZ6hg112ZX0-7">
          <mxGeometry width="30" height="30" as="geometry" />
        </mxCell>
        <mxCell id="2JdC5m-IOMZ6hg112ZX0-9" value="id int NOT NULL" style="shape=partialRectangle;connectable=0;fillColor=none;top=0;left=0;bottom=0;right=0;align=left;spacingLeft=6;fontStyle=5;overflow=hidden;" vertex="1" parent="2JdC5m-IOMZ6hg112ZX0-7">
          <mxGeometry x="30" width="250" height="30" as="geometry" />
        </mxCell>
        <mxCell id="2JdC5m-IOMZ6hg112ZX0-10" value="" style="shape=partialRectangle;collapsible=0;dropTarget=0;pointerEvents=0;fillColor=none;top=0;left=0;bottom=0;right=0;points=[[0,0.5],[1,0.5]];portConstraint=eastwest;" vertex="1" parent="2JdC5m-IOMZ6hg112ZX0-6">
          <mxGeometry y="60" width="280" height="30" as="geometry" />
        </mxCell>
        <mxCell id="2JdC5m-IOMZ6hg112ZX0-11" value="FK1" style="shape=partialRectangle;connectable=0;fillColor=none;top=0;left=0;bottom=0;right=0;editable=1;overflow=hidden;" vertex="1" parent="2JdC5m-IOMZ6hg112ZX0-10">
          <mxGeometry width="30" height="30" as="geometry" />
        </mxCell>
        <mxCell id="2JdC5m-IOMZ6hg112ZX0-12" value="userId int NOT NULL" style="shape=partialRectangle;connectable=0;fillColor=none;top=0;left=0;bottom=0;right=0;align=left;spacingLeft=6;overflow=hidden;" vertex="1" parent="2JdC5m-IOMZ6hg112ZX0-10">
          <mxGeometry x="30" width="250" height="30" as="geometry" />
        </mxCell>
        <mxCell id="2JdC5m-IOMZ6hg112ZX0-13" value="" style="shape=partialRectangle;collapsible=0;dropTarget=0;pointerEvents=0;fillColor=none;top=0;left=0;bottom=0;right=0;points=[[0,0.5],[1,0.5]];portConstraint=eastwest;" vertex="1" parent="2JdC5m-IOMZ6hg112ZX0-6">
          <mxGeometry y="90" width="280" height="30" as="geometry" />
        </mxCell>
        <mxCell id="2JdC5m-IOMZ6hg112ZX0-14" value="" style="shape=partialRectangle;connectable=0;fillColor=none;top=0;left=0;bottom=0;right=0;editable=1;overflow=hidden;" vertex="1" parent="2JdC5m-IOMZ6hg112ZX0-13">
          <mxGeometry width="30" height="30" as="geometry" />
        </mxCell>
        <mxCell id="2JdC5m-IOMZ6hg112ZX0-15" value="logDate string YYYY-MM-DD NOT NULL" style="shape=partialRectangle;connectable=0;fillColor=none;top=0;left=0;bottom=0;right=0;align=left;spacingLeft=6;overflow=hidden;" vertex="1" parent="2JdC5m-IOMZ6hg112ZX0-13">
          <mxGeometry x="30" width="250" height="30" as="geometry" />
        </mxCell>
        <mxCell id="2JdC5m-IOMZ6hg112ZX0-16" value="" style="shape=partialRectangle;collapsible=0;dropTarget=0;pointerEvents=0;fillColor=none;top=0;left=0;bottom=0;right=0;points=[[0,0.5],[1,0.5]];portConstraint=eastwest;" vertex="1" parent="2JdC5m-IOMZ6hg112ZX0-6">
          <mxGeometry y="120" width="280" height="30" as="geometry" />
        </mxCell>
        <mxCell id="2JdC5m-IOMZ6hg112ZX0-17" value="" style="shape=partialRectangle;connectable=0;fillColor=none;top=0;left=0;bottom=0;right=0;editable=1;overflow=hidden;" vertex="1" parent="2JdC5m-IOMZ6hg112ZX0-16">
          <mxGeometry width="30" height="30" as="geometry" />
        </mxCell>
        <mxCell id="2JdC5m-IOMZ6hg112ZX0-18" value="timeStart float NOT NULL" style="shape=partialRectangle;connectable=0;fillColor=none;top=0;left=0;bottom=0;right=0;align=left;spacingLeft=6;overflow=hidden;" vertex="1" parent="2JdC5m-IOMZ6hg112ZX0-16">
          <mxGeometry x="30" width="250" height="30" as="geometry" />
        </mxCell>
        <mxCell id="2JdC5m-IOMZ6hg112ZX0-35" value="" style="shape=partialRectangle;collapsible=0;dropTarget=0;pointerEvents=0;fillColor=none;top=0;left=0;bottom=0;right=0;points=[[0,0.5],[1,0.5]];portConstraint=eastwest;" vertex="1" parent="2JdC5m-IOMZ6hg112ZX0-6">
          <mxGeometry y="150" width="280" height="30" as="geometry" />
        </mxCell>
        <mxCell id="2JdC5m-IOMZ6hg112ZX0-36" value="" style="shape=partialRectangle;connectable=0;fillColor=none;top=0;left=0;bottom=0;right=0;editable=1;overflow=hidden;" vertex="1" parent="2JdC5m-IOMZ6hg112ZX0-35">
          <mxGeometry width="30" height="30" as="geometry" />
        </mxCell>
        <mxCell id="2JdC5m-IOMZ6hg112ZX0-37" value="timeEnd float NULL" style="shape=partialRectangle;connectable=0;fillColor=none;top=0;left=0;bottom=0;right=0;align=left;spacingLeft=6;overflow=hidden;" vertex="1" parent="2JdC5m-IOMZ6hg112ZX0-35">
          <mxGeometry x="30" width="250" height="30" as="geometry" />
        </mxCell>
        <mxCell id="2JdC5m-IOMZ6hg112ZX0-39" value="" style="shape=partialRectangle;collapsible=0;dropTarget=0;pointerEvents=0;fillColor=none;top=0;left=0;bottom=0;right=0;points=[[0,0.5],[1,0.5]];portConstraint=eastwest;" vertex="1" parent="2JdC5m-IOMZ6hg112ZX0-6">
          <mxGeometry y="180" width="280" height="30" as="geometry" />
        </mxCell>
        <mxCell id="2JdC5m-IOMZ6hg112ZX0-40" value="" style="shape=partialRectangle;connectable=0;fillColor=none;top=0;left=0;bottom=0;right=0;editable=1;overflow=hidden;" vertex="1" parent="2JdC5m-IOMZ6hg112ZX0-39">
          <mxGeometry width="30" height="30" as="geometry" />
        </mxCell>
        <mxCell id="2JdC5m-IOMZ6hg112ZX0-41" value="lock boolean NOT NULL default false" style="shape=partialRectangle;connectable=0;fillColor=none;top=0;left=0;bottom=0;right=0;align=left;spacingLeft=6;overflow=hidden;" vertex="1" parent="2JdC5m-IOMZ6hg112ZX0-39">
          <mxGeometry x="30" width="250" height="30" as="geometry" />
        </mxCell>
        <mxCell id="2JdC5m-IOMZ6hg112ZX0-72" value="" style="shape=partialRectangle;collapsible=0;dropTarget=0;pointerEvents=0;fillColor=none;top=0;left=0;bottom=1;right=0;points=[[0,0.5],[1,0.5]];portConstraint=eastwest;" vertex="1" parent="2JdC5m-IOMZ6hg112ZX0-6">
          <mxGeometry y="210" width="280" height="20" as="geometry" />
        </mxCell>
        <mxCell id="2JdC5m-IOMZ6hg112ZX0-73" value="" style="shape=partialRectangle;connectable=0;fillColor=none;top=0;left=0;bottom=0;right=0;fontStyle=1;overflow=hidden;" vertex="1" parent="2JdC5m-IOMZ6hg112ZX0-72">
          <mxGeometry width="30" height="20" as="geometry" />
        </mxCell>
        <mxCell id="2JdC5m-IOMZ6hg112ZX0-74" value="" style="shape=partialRectangle;connectable=0;fillColor=none;top=0;left=0;bottom=0;right=0;align=left;spacingLeft=6;fontStyle=5;overflow=hidden;" vertex="1" parent="2JdC5m-IOMZ6hg112ZX0-72">
          <mxGeometry x="30" width="250" height="20" as="geometry" />
        </mxCell>
        <mxCell id="2JdC5m-IOMZ6hg112ZX0-22" value="" style="edgeStyle=entityRelationEdgeStyle;fontSize=12;html=1;endArrow=ERoneToMany;startArrow=ERzeroToOne;exitX=1;exitY=0.5;exitDx=0;exitDy=0;entryX=0;entryY=0.5;entryDx=0;entryDy=0;" edge="1" parent="1" source="C-vyLk0tnHw3VtMMgP7b-24" target="2JdC5m-IOMZ6hg112ZX0-10">
          <mxGeometry width="100" height="100" relative="1" as="geometry">
            <mxPoint x="70" y="189" as="sourcePoint" />
            <mxPoint x="60" y="479" as="targetPoint" />
          </mxGeometry>
        </mxCell>
        <mxCell id="2JdC5m-IOMZ6hg112ZX0-54" value="wfh_requests" style="shape=table;startSize=30;container=1;collapsible=1;childLayout=tableLayout;fixedRows=1;rowLines=0;fontStyle=1;align=center;resizeLast=1;" vertex="1" parent="1">
          <mxGeometry x="480" y="340" width="290" height="290" as="geometry" />
        </mxCell>
        <mxCell id="2JdC5m-IOMZ6hg112ZX0-55" value="" style="shape=partialRectangle;collapsible=0;dropTarget=0;pointerEvents=0;fillColor=none;top=0;left=0;bottom=1;right=0;points=[[0,0.5],[1,0.5]];portConstraint=eastwest;" vertex="1" parent="2JdC5m-IOMZ6hg112ZX0-54">
          <mxGeometry y="30" width="290" height="30" as="geometry" />
        </mxCell>
        <mxCell id="2JdC5m-IOMZ6hg112ZX0-56" value="PK" style="shape=partialRectangle;connectable=0;fillColor=none;top=0;left=0;bottom=0;right=0;fontStyle=1;overflow=hidden;" vertex="1" parent="2JdC5m-IOMZ6hg112ZX0-55">
          <mxGeometry width="30" height="30" as="geometry" />
        </mxCell>
        <mxCell id="2JdC5m-IOMZ6hg112ZX0-57" value="id int NOT NULL" style="shape=partialRectangle;connectable=0;fillColor=none;top=0;left=0;bottom=0;right=0;align=left;spacingLeft=6;fontStyle=5;overflow=hidden;" vertex="1" parent="2JdC5m-IOMZ6hg112ZX0-55">
          <mxGeometry x="30" width="260" height="30" as="geometry" />
        </mxCell>
        <mxCell id="2JdC5m-IOMZ6hg112ZX0-148" value="" style="shape=partialRectangle;collapsible=0;dropTarget=0;pointerEvents=0;fillColor=none;top=0;left=0;bottom=0;right=0;points=[[0,0.5],[1,0.5]];portConstraint=eastwest;" vertex="1" parent="2JdC5m-IOMZ6hg112ZX0-54">
          <mxGeometry y="60" width="290" height="30" as="geometry" />
        </mxCell>
        <mxCell id="2JdC5m-IOMZ6hg112ZX0-149" value="FK1" style="shape=partialRectangle;connectable=0;fillColor=none;top=0;left=0;bottom=0;right=0;editable=1;overflow=hidden;" vertex="1" parent="2JdC5m-IOMZ6hg112ZX0-148">
          <mxGeometry width="30" height="30" as="geometry" />
        </mxCell>
        <mxCell id="2JdC5m-IOMZ6hg112ZX0-150" value="userId int NOT NULL" style="shape=partialRectangle;connectable=0;fillColor=none;top=0;left=0;bottom=0;right=0;align=left;spacingLeft=6;overflow=hidden;" vertex="1" parent="2JdC5m-IOMZ6hg112ZX0-148">
          <mxGeometry x="30" width="260" height="30" as="geometry" />
        </mxCell>
        <mxCell id="2JdC5m-IOMZ6hg112ZX0-58" value="" style="shape=partialRectangle;collapsible=0;dropTarget=0;pointerEvents=0;fillColor=none;top=0;left=0;bottom=0;right=0;points=[[0,0.5],[1,0.5]];portConstraint=eastwest;" vertex="1" parent="2JdC5m-IOMZ6hg112ZX0-54">
          <mxGeometry y="90" width="290" height="30" as="geometry" />
        </mxCell>
        <mxCell id="2JdC5m-IOMZ6hg112ZX0-59" value="" style="shape=partialRectangle;connectable=0;fillColor=none;top=0;left=0;bottom=0;right=0;editable=1;overflow=hidden;" vertex="1" parent="2JdC5m-IOMZ6hg112ZX0-58">
          <mxGeometry width="30" height="30" as="geometry" />
        </mxCell>
        <mxCell id="2JdC5m-IOMZ6hg112ZX0-60" value="requestDate string YYYY-MM-DD NOT NULL" style="shape=partialRectangle;connectable=0;fillColor=none;top=0;left=0;bottom=0;right=0;align=left;spacingLeft=6;overflow=hidden;" vertex="1" parent="2JdC5m-IOMZ6hg112ZX0-58">
          <mxGeometry x="30" width="260" height="30" as="geometry" />
        </mxCell>
        <mxCell id="2JdC5m-IOMZ6hg112ZX0-61" value="" style="shape=partialRectangle;collapsible=0;dropTarget=0;pointerEvents=0;fillColor=none;top=0;left=0;bottom=0;right=0;points=[[0,0.5],[1,0.5]];portConstraint=eastwest;" vertex="1" parent="2JdC5m-IOMZ6hg112ZX0-54">
          <mxGeometry y="120" width="290" height="30" as="geometry" />
        </mxCell>
        <mxCell id="2JdC5m-IOMZ6hg112ZX0-62" value="" style="shape=partialRectangle;connectable=0;fillColor=none;top=0;left=0;bottom=0;right=0;editable=1;overflow=hidden;" vertex="1" parent="2JdC5m-IOMZ6hg112ZX0-61">
          <mxGeometry width="30" height="30" as="geometry" />
        </mxCell>
        <mxCell id="2JdC5m-IOMZ6hg112ZX0-63" value="startTime float NOT NULL" style="shape=partialRectangle;connectable=0;fillColor=none;top=0;left=0;bottom=0;right=0;align=left;spacingLeft=6;overflow=hidden;" vertex="1" parent="2JdC5m-IOMZ6hg112ZX0-61">
          <mxGeometry x="30" width="260" height="30" as="geometry" />
        </mxCell>
        <mxCell id="2JdC5m-IOMZ6hg112ZX0-64" value="" style="shape=partialRectangle;collapsible=0;dropTarget=0;pointerEvents=0;fillColor=none;top=0;left=0;bottom=0;right=0;points=[[0,0.5],[1,0.5]];portConstraint=eastwest;" vertex="1" parent="2JdC5m-IOMZ6hg112ZX0-54">
          <mxGeometry y="150" width="290" height="30" as="geometry" />
        </mxCell>
        <mxCell id="2JdC5m-IOMZ6hg112ZX0-65" value="" style="shape=partialRectangle;connectable=0;fillColor=none;top=0;left=0;bottom=0;right=0;editable=1;overflow=hidden;" vertex="1" parent="2JdC5m-IOMZ6hg112ZX0-64">
          <mxGeometry width="30" height="30" as="geometry" />
        </mxCell>
        <mxCell id="2JdC5m-IOMZ6hg112ZX0-66" value="endTime float NOT NULL" style="shape=partialRectangle;connectable=0;fillColor=none;top=0;left=0;bottom=0;right=0;align=left;spacingLeft=6;overflow=hidden;" vertex="1" parent="2JdC5m-IOMZ6hg112ZX0-64">
          <mxGeometry x="30" width="260" height="30" as="geometry" />
        </mxCell>
        <mxCell id="2JdC5m-IOMZ6hg112ZX0-68" value="" style="shape=partialRectangle;collapsible=0;dropTarget=0;pointerEvents=0;fillColor=none;top=0;left=0;bottom=0;right=0;points=[[0,0.5],[1,0.5]];portConstraint=eastwest;" vertex="1" parent="2JdC5m-IOMZ6hg112ZX0-54">
          <mxGeometry y="180" width="290" height="30" as="geometry" />
        </mxCell>
        <mxCell id="2JdC5m-IOMZ6hg112ZX0-69" value="" style="shape=partialRectangle;connectable=0;fillColor=none;top=0;left=0;bottom=0;right=0;editable=1;overflow=hidden;" vertex="1" parent="2JdC5m-IOMZ6hg112ZX0-68">
          <mxGeometry width="30" height="30" as="geometry" />
        </mxCell>
        <mxCell id="2JdC5m-IOMZ6hg112ZX0-70" value="wfhType nomal | special default normal" style="shape=partialRectangle;connectable=0;fillColor=none;top=0;left=0;bottom=0;right=0;align=left;spacingLeft=6;overflow=hidden;" vertex="1" parent="2JdC5m-IOMZ6hg112ZX0-68">
          <mxGeometry x="30" width="260" height="30" as="geometry" />
        </mxCell>
        <mxCell id="2JdC5m-IOMZ6hg112ZX0-186" value="" style="shape=partialRectangle;collapsible=0;dropTarget=0;pointerEvents=0;fillColor=none;top=0;left=0;bottom=0;right=0;points=[[0,0.5],[1,0.5]];portConstraint=eastwest;" vertex="1" parent="2JdC5m-IOMZ6hg112ZX0-54">
          <mxGeometry y="210" width="290" height="30" as="geometry" />
        </mxCell>
        <mxCell id="2JdC5m-IOMZ6hg112ZX0-187" value="" style="shape=partialRectangle;connectable=0;fillColor=none;top=0;left=0;bottom=0;right=0;editable=1;overflow=hidden;" vertex="1" parent="2JdC5m-IOMZ6hg112ZX0-186">
          <mxGeometry width="30" height="30" as="geometry" />
        </mxCell>
        <mxCell id="2JdC5m-IOMZ6hg112ZX0-188" value="tasks varchar" style="shape=partialRectangle;connectable=0;fillColor=none;top=0;left=0;bottom=0;right=0;align=left;spacingLeft=6;overflow=hidden;" vertex="1" parent="2JdC5m-IOMZ6hg112ZX0-186">
          <mxGeometry x="30" width="260" height="30" as="geometry" />
        </mxCell>
        <mxCell id="2JdC5m-IOMZ6hg112ZX0-190" value="" style="shape=partialRectangle;collapsible=0;dropTarget=0;pointerEvents=0;fillColor=none;top=0;left=0;bottom=0;right=0;points=[[0,0.5],[1,0.5]];portConstraint=eastwest;" vertex="1" parent="2JdC5m-IOMZ6hg112ZX0-54">
          <mxGeometry y="240" width="290" height="30" as="geometry" />
        </mxCell>
        <mxCell id="2JdC5m-IOMZ6hg112ZX0-191" value="" style="shape=partialRectangle;connectable=0;fillColor=none;top=0;left=0;bottom=0;right=0;editable=1;overflow=hidden;" vertex="1" parent="2JdC5m-IOMZ6hg112ZX0-190">
          <mxGeometry width="30" height="30" as="geometry" />
        </mxCell>
        <mxCell id="2JdC5m-IOMZ6hg112ZX0-192" value="reason varchar" style="shape=partialRectangle;connectable=0;fillColor=none;top=0;left=0;bottom=0;right=0;align=left;spacingLeft=6;overflow=hidden;" vertex="1" parent="2JdC5m-IOMZ6hg112ZX0-190">
          <mxGeometry x="30" width="260" height="30" as="geometry" />
        </mxCell>
        <mxCell id="2JdC5m-IOMZ6hg112ZX0-105" value="approvals" style="shape=table;startSize=30;container=1;collapsible=1;childLayout=tableLayout;fixedRows=1;rowLines=0;fontStyle=1;align=center;resizeLast=1;" vertex="1" parent="1">
          <mxGeometry x="35" y="560" width="340" height="250" as="geometry" />
        </mxCell>
        <mxCell id="2JdC5m-IOMZ6hg112ZX0-106" value="" style="shape=partialRectangle;collapsible=0;dropTarget=0;pointerEvents=0;fillColor=none;top=0;left=0;bottom=1;right=0;points=[[0,0.5],[1,0.5]];portConstraint=eastwest;" vertex="1" parent="2JdC5m-IOMZ6hg112ZX0-105">
          <mxGeometry y="30" width="340" height="30" as="geometry" />
        </mxCell>
        <mxCell id="2JdC5m-IOMZ6hg112ZX0-107" value="PK" style="shape=partialRectangle;connectable=0;fillColor=none;top=0;left=0;bottom=0;right=0;fontStyle=1;overflow=hidden;" vertex="1" parent="2JdC5m-IOMZ6hg112ZX0-106">
          <mxGeometry width="30" height="30" as="geometry" />
        </mxCell>
        <mxCell id="2JdC5m-IOMZ6hg112ZX0-108" value="id int NOT NULL" style="shape=partialRectangle;connectable=0;fillColor=none;top=0;left=0;bottom=0;right=0;align=left;spacingLeft=6;fontStyle=5;overflow=hidden;" vertex="1" parent="2JdC5m-IOMZ6hg112ZX0-106">
          <mxGeometry x="30" width="310" height="30" as="geometry" />
        </mxCell>
        <mxCell id="2JdC5m-IOMZ6hg112ZX0-109" value="" style="shape=partialRectangle;collapsible=0;dropTarget=0;pointerEvents=0;fillColor=none;top=0;left=0;bottom=0;right=0;points=[[0,0.5],[1,0.5]];portConstraint=eastwest;" vertex="1" parent="2JdC5m-IOMZ6hg112ZX0-105">
          <mxGeometry y="60" width="340" height="30" as="geometry" />
        </mxCell>
        <mxCell id="2JdC5m-IOMZ6hg112ZX0-110" value="PK" style="shape=partialRectangle;connectable=0;fillColor=none;top=0;left=0;bottom=0;right=0;editable=1;overflow=hidden;" vertex="1" parent="2JdC5m-IOMZ6hg112ZX0-109">
          <mxGeometry width="30" height="30" as="geometry" />
        </mxCell>
        <mxCell id="2JdC5m-IOMZ6hg112ZX0-111" value="requestId int NOT NULL" style="shape=partialRectangle;connectable=0;fillColor=none;top=0;left=0;bottom=0;right=0;align=left;spacingLeft=6;overflow=hidden;" vertex="1" parent="2JdC5m-IOMZ6hg112ZX0-109">
          <mxGeometry x="30" width="310" height="30" as="geometry" />
        </mxCell>
        <mxCell id="2JdC5m-IOMZ6hg112ZX0-112" value="" style="shape=partialRectangle;collapsible=0;dropTarget=0;pointerEvents=0;fillColor=none;top=0;left=0;bottom=0;right=0;points=[[0,0.5],[1,0.5]];portConstraint=eastwest;" vertex="1" parent="2JdC5m-IOMZ6hg112ZX0-105">
          <mxGeometry y="90" width="340" height="30" as="geometry" />
        </mxCell>
        <mxCell id="2JdC5m-IOMZ6hg112ZX0-113" value="" style="shape=partialRectangle;connectable=0;fillColor=none;top=0;left=0;bottom=0;right=0;editable=1;overflow=hidden;" vertex="1" parent="2JdC5m-IOMZ6hg112ZX0-112">
          <mxGeometry width="30" height="30" as="geometry" />
        </mxCell>
        <mxCell id="2JdC5m-IOMZ6hg112ZX0-114" value="requestType wfh | timelog | absent | ..." style="shape=partialRectangle;connectable=0;fillColor=none;top=0;left=0;bottom=0;right=0;align=left;spacingLeft=6;overflow=hidden;" vertex="1" parent="2JdC5m-IOMZ6hg112ZX0-112">
          <mxGeometry x="30" width="310" height="30" as="geometry" />
        </mxCell>
        <mxCell id="2JdC5m-IOMZ6hg112ZX0-115" value="" style="shape=partialRectangle;collapsible=0;dropTarget=0;pointerEvents=0;fillColor=none;top=0;left=0;bottom=0;right=0;points=[[0,0.5],[1,0.5]];portConstraint=eastwest;" vertex="1" parent="2JdC5m-IOMZ6hg112ZX0-105">
          <mxGeometry y="120" width="340" height="30" as="geometry" />
        </mxCell>
        <mxCell id="2JdC5m-IOMZ6hg112ZX0-116" value="" style="shape=partialRectangle;connectable=0;fillColor=none;top=0;left=0;bottom=0;right=0;editable=1;overflow=hidden;" vertex="1" parent="2JdC5m-IOMZ6hg112ZX0-115">
          <mxGeometry width="30" height="30" as="geometry" />
        </mxCell>
        <mxCell id="2JdC5m-IOMZ6hg112ZX0-117" value="approveStatus requesting | approved | rejected | cancel" style="shape=partialRectangle;connectable=0;fillColor=none;top=0;left=0;bottom=0;right=0;align=left;spacingLeft=6;overflow=hidden;" vertex="1" parent="2JdC5m-IOMZ6hg112ZX0-115">
          <mxGeometry x="30" width="310" height="30" as="geometry" />
        </mxCell>
        <mxCell id="2JdC5m-IOMZ6hg112ZX0-119" value="" style="shape=partialRectangle;collapsible=0;dropTarget=0;pointerEvents=0;fillColor=none;top=0;left=0;bottom=0;right=0;points=[[0,0.5],[1,0.5]];portConstraint=eastwest;" vertex="1" parent="2JdC5m-IOMZ6hg112ZX0-105">
          <mxGeometry y="150" width="340" height="30" as="geometry" />
        </mxCell>
        <mxCell id="2JdC5m-IOMZ6hg112ZX0-120" value="" style="shape=partialRectangle;connectable=0;fillColor=none;top=0;left=0;bottom=0;right=0;editable=1;overflow=hidden;" vertex="1" parent="2JdC5m-IOMZ6hg112ZX0-119">
          <mxGeometry width="30" height="30" as="geometry" />
        </mxCell>
        <mxCell id="2JdC5m-IOMZ6hg112ZX0-121" value="approver int number NOTNULL" style="shape=partialRectangle;connectable=0;fillColor=none;top=0;left=0;bottom=0;right=0;align=left;spacingLeft=6;overflow=hidden;" vertex="1" parent="2JdC5m-IOMZ6hg112ZX0-119">
          <mxGeometry x="30" width="310" height="30" as="geometry" />
        </mxCell>
        <mxCell id="2JdC5m-IOMZ6hg112ZX0-123" value="" style="shape=partialRectangle;collapsible=0;dropTarget=0;pointerEvents=0;fillColor=none;top=0;left=0;bottom=0;right=0;points=[[0,0.5],[1,0.5]];portConstraint=eastwest;" vertex="1" parent="2JdC5m-IOMZ6hg112ZX0-105">
          <mxGeometry y="180" width="340" height="30" as="geometry" />
        </mxCell>
        <mxCell id="2JdC5m-IOMZ6hg112ZX0-124" value="" style="shape=partialRectangle;connectable=0;fillColor=none;top=0;left=0;bottom=0;right=0;editable=1;overflow=hidden;" vertex="1" parent="2JdC5m-IOMZ6hg112ZX0-123">
          <mxGeometry width="30" height="30" as="geometry" />
        </mxCell>
        <mxCell id="2JdC5m-IOMZ6hg112ZX0-125" value="reason varchar(255) NULL" style="shape=partialRectangle;connectable=0;fillColor=none;top=0;left=0;bottom=0;right=0;align=left;spacingLeft=6;overflow=hidden;" vertex="1" parent="2JdC5m-IOMZ6hg112ZX0-123">
          <mxGeometry x="30" width="310" height="30" as="geometry" />
        </mxCell>
        <mxCell id="2JdC5m-IOMZ6hg112ZX0-127" value="" style="shape=partialRectangle;collapsible=0;dropTarget=0;pointerEvents=0;fillColor=none;top=0;left=0;bottom=0;right=0;points=[[0,0.5],[1,0.5]];portConstraint=eastwest;" vertex="1" parent="2JdC5m-IOMZ6hg112ZX0-105">
          <mxGeometry y="210" width="340" height="30" as="geometry" />
        </mxCell>
        <mxCell id="2JdC5m-IOMZ6hg112ZX0-128" value="" style="shape=partialRectangle;connectable=0;fillColor=none;top=0;left=0;bottom=0;right=0;editable=1;overflow=hidden;" vertex="1" parent="2JdC5m-IOMZ6hg112ZX0-127">
          <mxGeometry width="30" height="30" as="geometry" />
        </mxCell>
        <mxCell id="2JdC5m-IOMZ6hg112ZX0-129" value="approveDate YYYY-MM-DD NOT NULL" style="shape=partialRectangle;connectable=0;fillColor=none;top=0;left=0;bottom=0;right=0;align=left;spacingLeft=6;overflow=hidden;" vertex="1" parent="2JdC5m-IOMZ6hg112ZX0-127">
          <mxGeometry x="30" width="310" height="30" as="geometry" />
        </mxCell>
        <mxCell id="2JdC5m-IOMZ6hg112ZX0-130" value="timelog_requests" style="shape=table;startSize=30;container=1;collapsible=1;childLayout=tableLayout;fixedRows=1;rowLines=0;fontStyle=1;align=center;resizeLast=1;" vertex="1" parent="1">
          <mxGeometry x="480" y="650" width="290" height="190" as="geometry" />
        </mxCell>
        <mxCell id="2JdC5m-IOMZ6hg112ZX0-131" value="" style="shape=partialRectangle;collapsible=0;dropTarget=0;pointerEvents=0;fillColor=none;top=0;left=0;bottom=1;right=0;points=[[0,0.5],[1,0.5]];portConstraint=eastwest;" vertex="1" parent="2JdC5m-IOMZ6hg112ZX0-130">
          <mxGeometry y="30" width="290" height="30" as="geometry" />
        </mxCell>
        <mxCell id="2JdC5m-IOMZ6hg112ZX0-132" value="PK" style="shape=partialRectangle;connectable=0;fillColor=none;top=0;left=0;bottom=0;right=0;fontStyle=1;overflow=hidden;" vertex="1" parent="2JdC5m-IOMZ6hg112ZX0-131">
          <mxGeometry width="30" height="30" as="geometry" />
        </mxCell>
        <mxCell id="2JdC5m-IOMZ6hg112ZX0-133" value="id int NOT NULL" style="shape=partialRectangle;connectable=0;fillColor=none;top=0;left=0;bottom=0;right=0;align=left;spacingLeft=6;fontStyle=5;overflow=hidden;" vertex="1" parent="2JdC5m-IOMZ6hg112ZX0-131">
          <mxGeometry x="30" width="260" height="30" as="geometry" />
        </mxCell>
        <mxCell id="2JdC5m-IOMZ6hg112ZX0-134" value="" style="shape=partialRectangle;collapsible=0;dropTarget=0;pointerEvents=0;fillColor=none;top=0;left=0;bottom=0;right=0;points=[[0,0.5],[1,0.5]];portConstraint=eastwest;" vertex="1" parent="2JdC5m-IOMZ6hg112ZX0-130">
          <mxGeometry y="60" width="290" height="30" as="geometry" />
        </mxCell>
        <mxCell id="2JdC5m-IOMZ6hg112ZX0-135" value="FK1" style="shape=partialRectangle;connectable=0;fillColor=none;top=0;left=0;bottom=0;right=0;editable=1;overflow=hidden;" vertex="1" parent="2JdC5m-IOMZ6hg112ZX0-134">
          <mxGeometry width="30" height="30" as="geometry" />
        </mxCell>
        <mxCell id="2JdC5m-IOMZ6hg112ZX0-136" value="userId int NOT NULL" style="shape=partialRectangle;connectable=0;fillColor=none;top=0;left=0;bottom=0;right=0;align=left;spacingLeft=6;overflow=hidden;" vertex="1" parent="2JdC5m-IOMZ6hg112ZX0-134">
          <mxGeometry x="30" width="260" height="30" as="geometry" />
        </mxCell>
        <mxCell id="2JdC5m-IOMZ6hg112ZX0-137" value="" style="shape=partialRectangle;collapsible=0;dropTarget=0;pointerEvents=0;fillColor=none;top=0;left=0;bottom=0;right=0;points=[[0,0.5],[1,0.5]];portConstraint=eastwest;" vertex="1" parent="2JdC5m-IOMZ6hg112ZX0-130">
          <mxGeometry y="90" width="290" height="30" as="geometry" />
        </mxCell>
        <mxCell id="2JdC5m-IOMZ6hg112ZX0-138" value="" style="shape=partialRectangle;connectable=0;fillColor=none;top=0;left=0;bottom=0;right=0;editable=1;overflow=hidden;" vertex="1" parent="2JdC5m-IOMZ6hg112ZX0-137">
          <mxGeometry width="30" height="30" as="geometry" />
        </mxCell>
        <mxCell id="2JdC5m-IOMZ6hg112ZX0-139" value="adjustDate YYYY-MM-DD NOT NULL" style="shape=partialRectangle;connectable=0;fillColor=none;top=0;left=0;bottom=0;right=0;align=left;spacingLeft=6;overflow=hidden;" vertex="1" parent="2JdC5m-IOMZ6hg112ZX0-137">
          <mxGeometry x="30" width="260" height="30" as="geometry" />
        </mxCell>
        <mxCell id="2JdC5m-IOMZ6hg112ZX0-140" value="" style="shape=partialRectangle;collapsible=0;dropTarget=0;pointerEvents=0;fillColor=none;top=0;left=0;bottom=0;right=0;points=[[0,0.5],[1,0.5]];portConstraint=eastwest;" vertex="1" parent="2JdC5m-IOMZ6hg112ZX0-130">
          <mxGeometry y="120" width="290" height="30" as="geometry" />
        </mxCell>
        <mxCell id="2JdC5m-IOMZ6hg112ZX0-141" value="" style="shape=partialRectangle;connectable=0;fillColor=none;top=0;left=0;bottom=0;right=0;editable=1;overflow=hidden;" vertex="1" parent="2JdC5m-IOMZ6hg112ZX0-140">
          <mxGeometry width="30" height="30" as="geometry" />
        </mxCell>
        <mxCell id="2JdC5m-IOMZ6hg112ZX0-142" value="timeStart float NOT NULL" style="shape=partialRectangle;connectable=0;fillColor=none;top=0;left=0;bottom=0;right=0;align=left;spacingLeft=6;overflow=hidden;" vertex="1" parent="2JdC5m-IOMZ6hg112ZX0-140">
          <mxGeometry x="30" width="260" height="30" as="geometry" />
        </mxCell>
        <mxCell id="2JdC5m-IOMZ6hg112ZX0-144" value="" style="shape=partialRectangle;collapsible=0;dropTarget=0;pointerEvents=0;fillColor=none;top=0;left=0;bottom=0;right=0;points=[[0,0.5],[1,0.5]];portConstraint=eastwest;" vertex="1" parent="2JdC5m-IOMZ6hg112ZX0-130">
          <mxGeometry y="150" width="290" height="30" as="geometry" />
        </mxCell>
        <mxCell id="2JdC5m-IOMZ6hg112ZX0-145" value="" style="shape=partialRectangle;connectable=0;fillColor=none;top=0;left=0;bottom=0;right=0;editable=1;overflow=hidden;" vertex="1" parent="2JdC5m-IOMZ6hg112ZX0-144">
          <mxGeometry width="30" height="30" as="geometry" />
        </mxCell>
        <mxCell id="2JdC5m-IOMZ6hg112ZX0-146" value="timeEnd float NOT NULL" style="shape=partialRectangle;connectable=0;fillColor=none;top=0;left=0;bottom=0;right=0;align=left;spacingLeft=6;overflow=hidden;" vertex="1" parent="2JdC5m-IOMZ6hg112ZX0-144">
          <mxGeometry x="30" width="260" height="30" as="geometry" />
        </mxCell>
        <mxCell id="2JdC5m-IOMZ6hg112ZX0-151" value="" style="edgeStyle=entityRelationEdgeStyle;fontSize=12;html=1;endArrow=ERoneToMany;startArrow=ERzeroToOne;exitX=1;exitY=0.5;exitDx=0;exitDy=0;entryX=0;entryY=0.5;entryDx=0;entryDy=0;" edge="1" parent="1" target="2JdC5m-IOMZ6hg112ZX0-148">
          <mxGeometry width="100" height="100" relative="1" as="geometry">
            <mxPoint x="360" y="130" as="sourcePoint" />
            <mxPoint x="480" y="160" as="targetPoint" />
          </mxGeometry>
        </mxCell>
        <mxCell id="2JdC5m-IOMZ6hg112ZX0-152" value="" style="edgeStyle=entityRelationEdgeStyle;fontSize=12;html=1;endArrow=ERoneToMany;startArrow=ERzeroToOne;exitX=1;exitY=0.5;exitDx=0;exitDy=0;entryX=0;entryY=0.5;entryDx=0;entryDy=0;" edge="1" parent="1" target="2JdC5m-IOMZ6hg112ZX0-134">
          <mxGeometry width="100" height="100" relative="1" as="geometry">
            <mxPoint x="360" y="130" as="sourcePoint" />
            <mxPoint x="480" y="440" as="targetPoint" />
          </mxGeometry>
        </mxCell>
        <mxCell id="2JdC5m-IOMZ6hg112ZX0-153" value="" style="edgeStyle=entityRelationEdgeStyle;fontSize=12;html=1;endArrow=ERmandOne;startArrow=ERmandOne;exitX=1;exitY=0.5;exitDx=0;exitDy=0;" edge="1" parent="1" source="2JdC5m-IOMZ6hg112ZX0-109">
          <mxGeometry width="100" height="100" relative="1" as="geometry">
            <mxPoint x="380" y="510" as="sourcePoint" />
            <mxPoint x="480" y="410" as="targetPoint" />
          </mxGeometry>
        </mxCell>
        <mxCell id="2JdC5m-IOMZ6hg112ZX0-155" value="" style="edgeStyle=entityRelationEdgeStyle;fontSize=12;html=1;endArrow=ERmandOne;startArrow=ERmandOne;entryX=0;entryY=0.5;entryDx=0;entryDy=0;exitX=1;exitY=0.5;exitDx=0;exitDy=0;" edge="1" parent="1" source="2JdC5m-IOMZ6hg112ZX0-109" target="2JdC5m-IOMZ6hg112ZX0-131">
          <mxGeometry width="100" height="100" relative="1" as="geometry">
            <mxPoint x="360" y="450" as="sourcePoint" />
            <mxPoint x="470" y="470" as="targetPoint" />
          </mxGeometry>
        </mxCell>
        <mxCell id="2JdC5m-IOMZ6hg112ZX0-157" value="" style="edgeStyle=entityRelationEdgeStyle;fontSize=12;html=1;endArrow=ERzeroToMany;endFill=1;" edge="1" parent="1" target="2JdC5m-IOMZ6hg112ZX0-109">
          <mxGeometry width="100" height="100" relative="1" as="geometry">
            <mxPoint x="360" y="130" as="sourcePoint" />
            <mxPoint x="360" y="450" as="targetPoint" />
          </mxGeometry>
        </mxCell>
        <mxCell id="2JdC5m-IOMZ6hg112ZX0-159" value="roles" style="shape=table;startSize=30;container=1;collapsible=1;childLayout=tableLayout;fixedRows=1;rowLines=0;fontStyle=1;align=center;resizeLast=1;" vertex="1" parent="1">
          <mxGeometry x="110" y="330" width="250" height="160" as="geometry" />
        </mxCell>
        <mxCell id="2JdC5m-IOMZ6hg112ZX0-160" value="" style="shape=partialRectangle;collapsible=0;dropTarget=0;pointerEvents=0;fillColor=none;top=0;left=0;bottom=1;right=0;points=[[0,0.5],[1,0.5]];portConstraint=eastwest;" vertex="1" parent="2JdC5m-IOMZ6hg112ZX0-159">
          <mxGeometry y="30" width="250" height="30" as="geometry" />
        </mxCell>
        <mxCell id="2JdC5m-IOMZ6hg112ZX0-161" value="PK" style="shape=partialRectangle;connectable=0;fillColor=none;top=0;left=0;bottom=0;right=0;fontStyle=1;overflow=hidden;" vertex="1" parent="2JdC5m-IOMZ6hg112ZX0-160">
          <mxGeometry width="30" height="30" as="geometry" />
        </mxCell>
        <mxCell id="2JdC5m-IOMZ6hg112ZX0-162" value="id int NOT NULL" style="shape=partialRectangle;connectable=0;fillColor=none;top=0;left=0;bottom=0;right=0;align=left;spacingLeft=6;fontStyle=5;overflow=hidden;" vertex="1" parent="2JdC5m-IOMZ6hg112ZX0-160">
          <mxGeometry x="30" width="220" height="30" as="geometry" />
        </mxCell>
        <mxCell id="2JdC5m-IOMZ6hg112ZX0-163" value="" style="shape=partialRectangle;collapsible=0;dropTarget=0;pointerEvents=0;fillColor=none;top=0;left=0;bottom=0;right=0;points=[[0,0.5],[1,0.5]];portConstraint=eastwest;" vertex="1" parent="2JdC5m-IOMZ6hg112ZX0-159">
          <mxGeometry y="60" width="250" height="30" as="geometry" />
        </mxCell>
        <mxCell id="2JdC5m-IOMZ6hg112ZX0-164" value="" style="shape=partialRectangle;connectable=0;fillColor=none;top=0;left=0;bottom=0;right=0;editable=1;overflow=hidden;" vertex="1" parent="2JdC5m-IOMZ6hg112ZX0-163">
          <mxGeometry width="30" height="30" as="geometry" />
        </mxCell>
        <mxCell id="2JdC5m-IOMZ6hg112ZX0-165" value="userId int not null" style="shape=partialRectangle;connectable=0;fillColor=none;top=0;left=0;bottom=0;right=0;align=left;spacingLeft=6;overflow=hidden;" vertex="1" parent="2JdC5m-IOMZ6hg112ZX0-163">
          <mxGeometry x="30" width="220" height="30" as="geometry" />
        </mxCell>
        <mxCell id="2JdC5m-IOMZ6hg112ZX0-166" value="" style="shape=partialRectangle;collapsible=0;dropTarget=0;pointerEvents=0;fillColor=none;top=0;left=0;bottom=0;right=0;points=[[0,0.5],[1,0.5]];portConstraint=eastwest;" vertex="1" parent="2JdC5m-IOMZ6hg112ZX0-159">
          <mxGeometry y="90" width="250" height="30" as="geometry" />
        </mxCell>
        <mxCell id="2JdC5m-IOMZ6hg112ZX0-167" value="" style="shape=partialRectangle;connectable=0;fillColor=none;top=0;left=0;bottom=0;right=0;editable=1;overflow=hidden;" vertex="1" parent="2JdC5m-IOMZ6hg112ZX0-166">
          <mxGeometry width="30" height="30" as="geometry" />
        </mxCell>
        <mxCell id="2JdC5m-IOMZ6hg112ZX0-168" value="role admin | approver | employee" style="shape=partialRectangle;connectable=0;fillColor=none;top=0;left=0;bottom=0;right=0;align=left;spacingLeft=6;overflow=hidden;" vertex="1" parent="2JdC5m-IOMZ6hg112ZX0-166">
          <mxGeometry x="30" width="220" height="30" as="geometry" />
        </mxCell>
        <mxCell id="2JdC5m-IOMZ6hg112ZX0-169" value="" style="shape=partialRectangle;collapsible=0;dropTarget=0;pointerEvents=0;fillColor=none;top=0;left=0;bottom=0;right=0;points=[[0,0.5],[1,0.5]];portConstraint=eastwest;" vertex="1" parent="2JdC5m-IOMZ6hg112ZX0-159">
          <mxGeometry y="120" width="250" height="30" as="geometry" />
        </mxCell>
        <mxCell id="2JdC5m-IOMZ6hg112ZX0-170" value="" style="shape=partialRectangle;connectable=0;fillColor=none;top=0;left=0;bottom=0;right=0;editable=1;overflow=hidden;" vertex="1" parent="2JdC5m-IOMZ6hg112ZX0-169">
          <mxGeometry width="30" height="30" as="geometry" />
        </mxCell>
        <mxCell id="2JdC5m-IOMZ6hg112ZX0-171" value="active boolean" style="shape=partialRectangle;connectable=0;fillColor=none;top=0;left=0;bottom=0;right=0;align=left;spacingLeft=6;overflow=hidden;" vertex="1" parent="2JdC5m-IOMZ6hg112ZX0-169">
          <mxGeometry x="30" width="220" height="30" as="geometry" />
        </mxCell>
        <mxCell id="2JdC5m-IOMZ6hg112ZX0-172" value="leavebooking_requests" style="shape=table;startSize=30;container=1;collapsible=1;childLayout=tableLayout;fixedRows=1;rowLines=0;fontStyle=1;align=center;resizeLast=1;" vertex="1" parent="1">
          <mxGeometry x="480" y="870" width="290" height="160" as="geometry" />
        </mxCell>
        <mxCell id="2JdC5m-IOMZ6hg112ZX0-173" value="" style="shape=partialRectangle;collapsible=0;dropTarget=0;pointerEvents=0;fillColor=none;top=0;left=0;bottom=1;right=0;points=[[0,0.5],[1,0.5]];portConstraint=eastwest;" vertex="1" parent="2JdC5m-IOMZ6hg112ZX0-172">
          <mxGeometry y="30" width="290" height="30" as="geometry" />
        </mxCell>
        <mxCell id="2JdC5m-IOMZ6hg112ZX0-174" value="PK" style="shape=partialRectangle;connectable=0;fillColor=none;top=0;left=0;bottom=0;right=0;fontStyle=1;overflow=hidden;" vertex="1" parent="2JdC5m-IOMZ6hg112ZX0-173">
          <mxGeometry width="30" height="30" as="geometry" />
        </mxCell>
        <mxCell id="2JdC5m-IOMZ6hg112ZX0-175" value="id int NOT NULL" style="shape=partialRectangle;connectable=0;fillColor=none;top=0;left=0;bottom=0;right=0;align=left;spacingLeft=6;fontStyle=5;overflow=hidden;" vertex="1" parent="2JdC5m-IOMZ6hg112ZX0-173">
          <mxGeometry x="30" width="260" height="30" as="geometry" />
        </mxCell>
        <mxCell id="2JdC5m-IOMZ6hg112ZX0-176" value="" style="shape=partialRectangle;collapsible=0;dropTarget=0;pointerEvents=0;fillColor=none;top=0;left=0;bottom=0;right=0;points=[[0,0.5],[1,0.5]];portConstraint=eastwest;" vertex="1" parent="2JdC5m-IOMZ6hg112ZX0-172">
          <mxGeometry y="60" width="290" height="30" as="geometry" />
        </mxCell>
        <mxCell id="2JdC5m-IOMZ6hg112ZX0-177" value="" style="shape=partialRectangle;connectable=0;fillColor=none;top=0;left=0;bottom=0;right=0;editable=1;overflow=hidden;" vertex="1" parent="2JdC5m-IOMZ6hg112ZX0-176">
          <mxGeometry width="30" height="30" as="geometry" />
        </mxCell>
        <mxCell id="2JdC5m-IOMZ6hg112ZX0-178" value="userId int NOT NULL" style="shape=partialRectangle;connectable=0;fillColor=none;top=0;left=0;bottom=0;right=0;align=left;spacingLeft=6;overflow=hidden;" vertex="1" parent="2JdC5m-IOMZ6hg112ZX0-176">
          <mxGeometry x="30" width="260" height="30" as="geometry" />
        </mxCell>
        <mxCell id="2JdC5m-IOMZ6hg112ZX0-179" value="" style="shape=partialRectangle;collapsible=0;dropTarget=0;pointerEvents=0;fillColor=none;top=0;left=0;bottom=0;right=0;points=[[0,0.5],[1,0.5]];portConstraint=eastwest;" vertex="1" parent="2JdC5m-IOMZ6hg112ZX0-172">
          <mxGeometry y="90" width="290" height="30" as="geometry" />
        </mxCell>
        <mxCell id="2JdC5m-IOMZ6hg112ZX0-180" value="" style="shape=partialRectangle;connectable=0;fillColor=none;top=0;left=0;bottom=0;right=0;editable=1;overflow=hidden;" vertex="1" parent="2JdC5m-IOMZ6hg112ZX0-179">
          <mxGeometry width="30" height="30" as="geometry" />
        </mxCell>
        <mxCell id="2JdC5m-IOMZ6hg112ZX0-181" value="absentDate YYYY-MM-DD" style="shape=partialRectangle;connectable=0;fillColor=none;top=0;left=0;bottom=0;right=0;align=left;spacingLeft=6;overflow=hidden;" vertex="1" parent="2JdC5m-IOMZ6hg112ZX0-179">
          <mxGeometry x="30" width="260" height="30" as="geometry" />
        </mxCell>
        <mxCell id="2JdC5m-IOMZ6hg112ZX0-182" value="" style="shape=partialRectangle;collapsible=0;dropTarget=0;pointerEvents=0;fillColor=none;top=0;left=0;bottom=0;right=0;points=[[0,0.5],[1,0.5]];portConstraint=eastwest;" vertex="1" parent="2JdC5m-IOMZ6hg112ZX0-172">
          <mxGeometry y="120" width="290" height="30" as="geometry" />
        </mxCell>
        <mxCell id="2JdC5m-IOMZ6hg112ZX0-183" value="" style="shape=partialRectangle;connectable=0;fillColor=none;top=0;left=0;bottom=0;right=0;editable=1;overflow=hidden;" vertex="1" parent="2JdC5m-IOMZ6hg112ZX0-182">
          <mxGeometry width="30" height="30" as="geometry" />
        </mxCell>
        <mxCell id="2JdC5m-IOMZ6hg112ZX0-184" value="reason varchar" style="shape=partialRectangle;connectable=0;fillColor=none;top=0;left=0;bottom=0;right=0;align=left;spacingLeft=6;overflow=hidden;" vertex="1" parent="2JdC5m-IOMZ6hg112ZX0-182">
          <mxGeometry x="30" width="260" height="30" as="geometry" />
        </mxCell>
        <mxCell id="2JdC5m-IOMZ6hg112ZX0-193" value="" style="edgeStyle=entityRelationEdgeStyle;fontSize=12;html=1;endArrow=ERmandOne;startArrow=ERmandOne;" edge="1" parent="1" source="2JdC5m-IOMZ6hg112ZX0-109" target="2JdC5m-IOMZ6hg112ZX0-173">
          <mxGeometry width="100" height="100" relative="1" as="geometry">
            <mxPoint x="373" y="850" as="sourcePoint" />
            <mxPoint x="478" y="910" as="targetPoint" />
          </mxGeometry>
        </mxCell>
        <mxCell id="2JdC5m-IOMZ6hg112ZX0-194" value="" style="edgeStyle=entityRelationEdgeStyle;fontSize=12;html=1;endArrow=ERoneToMany;startArrow=ERzeroToOne;" edge="1" parent="1" source="C-vyLk0tnHw3VtMMgP7b-24" target="2JdC5m-IOMZ6hg112ZX0-176">
          <mxGeometry width="100" height="100" relative="1" as="geometry">
            <mxPoint x="340" y="330" as="sourcePoint" />
            <mxPoint x="460" y="615" as="targetPoint" />
          </mxGeometry>
        </mxCell>
      </root>
    </mxGraphModel>
  </diagram>
</mxfile>
